<?xml version="1.0" standalone="no"?>
<!DOCTYPE svg PUBLIC "-//W3C//DTD SVG 20010904//EN"
 "http://www.w3.org/TR/2001/REC-SVG-20010904/DTD/svg10.dtd">
<svg version="1.0" xmlns="http://www.w3.org/2000/svg"
 width="299.000000pt" height="299.000000pt" viewBox="0 0 299.000000 299.000000"
 preserveAspectRatio="xMidYMid meet">
<metadata>
Created by potrace 1.14, written by Peter Selinger 2001-2017
</metadata>
<g transform="translate(0.000000,299.000000) scale(0.100000,-0.100000)"
fill="#000000" stroke="none">
<path d="M1325 2974 c-305 -45 -578 -166 -795 -354 -65 -56 -93 -85 -155 -157
-89 -104 -102 -122 -156 -213 -77 -128 -148 -311 -174 -450 -8 -41 -17 -86
-20 -99 -19 -98 -14 -359 9 -477 74 -371 235 -638 552 -915 109 -96 333 -210
505 -259 251 -71 722 -53 915 35 30 14 59 25 65 25 15 0 147 68 209 108 122
78 153 102 253 200 42 40 157 178 202 242 86 123 180 343 216 505 7 33 14 63
15 68 1 4 2 23 3 43 0 21 5 33 11 29 7 -4 10 58 10 179 0 102 -4 186 -9 186
-4 0 -11 27 -15 59 -4 33 -16 92 -27 133 -12 40 -22 78 -23 83 -1 6 -4 15 -7
20 -4 6 -12 28 -19 50 -32 100 -138 288 -229 408 -53 68 -194 202 -286 270
-96 72 -307 181 -417 217 -142 46 -246 61 -428 65 -96 2 -188 1 -205 -1z m442
-163 c319 -66 595 -239 802 -504 30 -37 51 -70 48 -73 -3 -3 -19 1 -35 10 -40
20 -165 39 -220 33 -37 -4 -42 -2 -36 12 23 56 25 54 -75 49 -80 -5 -102 -10
-166 -42 -92 -45 -190 -147 -255 -263 -43 -78 -47 -81 -98 -98 -111 -35 -347
-36 -464 -1 -54 15 -60 20 -84 69 -111 219 -274 337 -466 337 -65 0 -68 -1
-58 -19 22 -41 14 -46 -78 -47 -53 -1 -104 -8 -132 -19 -86 -32 -86 -32 -23
51 215 281 533 468 883 519 127 19 326 13 457 -14z m-1396 -653 c22 -27 24
-48 6 -48 -21 0 -66 -53 -77 -91 -19 -64 16 -147 71 -169 26 -11 30 -17 25
-39 -3 -14 -10 -56 -16 -92 -49 -297 243 -571 539 -508 39 9 71 14 71 12 0 -2
-12 -27 -27 -56 -27 -54 -35 -124 -20 -182 7 -30 6 -31 -39 -43 -61 -17 -120
-74 -130 -127 -8 -42 7 -115 32 -153 l14 -22 60 30 c33 16 62 30 64 30 3 0 8
-17 12 -37 19 -104 88 -171 199 -192 l45 -8 0 54 0 55 33 -48 c24 -37 47 -57
92 -79 56 -28 67 -30 175 -30 139 0 192 19 257 93 l43 47 0 -46 0 -46 46 8
c101 19 180 92 191 178 3 23 9 44 14 47 4 2 35 -9 68 -26 l61 -30 19 38 c31
60 36 107 17 156 -21 56 -50 82 -117 105 -35 12 -53 23 -50 32 23 86 18 144
-20 207 -10 18 -19 37 -19 41 0 4 23 2 52 -5 198 -52 409 50 512 246 35 66 39
83 44 166 4 82 -3 144 -23 196 -4 11 2 17 17 21 13 4 37 20 52 36 23 24 30 42
34 84 5 66 -15 110 -64 139 l-34 20 23 28 c12 16 25 29 28 29 3 1 18 -21 32
-47 83 -152 140 -347 155 -529 50 -584 -283 -1135 -821 -1357 -431 -179 -904
-127 -1296 142 -145 100 -332 314 -423 487 -62 117 -120 317 -137 470 -25 230
27 544 122 725 67 129 59 121 88 88z m615 -201 c106 -54 184 -178 184 -293 0
-82 -17 -133 -64 -194 -131 -171 -385 -183 -525 -24 -64 73 -76 106 -76 214 0
83 4 101 27 145 36 68 92 122 163 157 55 27 67 29 150 25 73 -3 100 -8 141
-30z m1298 12 c73 -27 148 -96 183 -167 24 -50 28 -69 28 -147 0 -82 -3 -94
-30 -140 -72 -121 -169 -179 -300 -180 -71 0 -88 4 -147 33 -174 85 -239 269
-157 439 36 75 124 149 200 172 61 17 164 13 223 -10z m-714 -235 c43 -37 57
-69 86 -197 32 -146 56 -193 154 -302 88 -98 125 -162 115 -195 -4 -14 -36
-35 -91 -61 -73 -35 -91 -49 -139 -108 -31 -38 -70 -75 -88 -82 -42 -18 -173
-18 -215 0 -18 8 -54 39 -79 70 -52 64 -100 101 -163 125 -56 22 -80 43 -80
71 0 29 48 102 112 172 104 113 129 162 164 328 19 94 54 164 92 188 41 25 95
22 132 -9z"/>
</g>
</svg>
